<svg width="340" height="197" viewBox="0 0 340 197" fill="none" xmlns="http://www.w3.org/2000/svg">
<rect width="340" height="197" fill="url(#paint0_linear)"/>
<path d="M21.2018 96.253V55.9898H50.6472V64.0424H29.8623V73.8206H46.0283V81.5857H29.8623V96.253H21.2018ZM52.934 96.253V55.9898H71.9868C76.7982 55.9898 80.6472 57.2936 83.5341 59.9011C86.4209 62.4702 87.8643 65.6721 87.8643 69.5067C87.8643 72.4977 87.0175 75.0477 85.324 77.1567C83.6304 79.2657 81.3979 80.8379 78.6265 81.8733L87.8643 96.253H78.0491L69.6774 83.0236H61.5944V96.253H52.934ZM61.5944 74.971H71.6982C74.0846 74.971 75.8744 74.4917 77.0676 73.533C78.2993 72.536 78.9151 71.1939 78.9151 69.5067C78.9151 67.8195 78.2993 66.4966 77.0676 65.5379C75.8744 64.5409 74.0846 64.0424 71.6982 64.0424H61.5944V74.971ZM95.3745 91.2488C91.1405 87.1075 89.0235 82.065 89.0235 76.1214C89.0235 70.1778 91.1405 65.1545 95.3745 61.0514C99.6469 56.9101 104.939 54.8394 111.252 54.8394C117.564 54.8394 122.838 56.9101 127.071 61.0514C131.344 65.1545 133.48 70.1778 133.48 76.1214C133.48 82.065 131.344 87.1075 127.071 91.2488C122.838 95.3518 117.564 97.4033 111.252 97.4033C104.939 97.4033 99.6469 95.3518 95.3745 91.2488ZM101.899 66.6308C99.4737 69.0849 98.2613 72.2484 98.2613 76.1214C98.2613 79.9943 99.4737 83.177 101.899 85.6695C104.362 88.1236 107.48 89.3507 111.252 89.3507C115.024 89.3507 118.122 88.1236 120.547 85.6695C123.011 83.177 124.242 79.9943 124.242 76.1214C124.242 72.2484 123.011 69.0849 120.547 66.6308C118.122 64.1383 115.024 62.892 111.252 62.892C107.48 62.892 104.362 64.1383 101.899 66.6308ZM136.358 96.253V55.9898H147.616L163.494 84.4616H164.071L163.494 79.5725V55.9898H172.154V96.253H160.896L145.018 67.7811H144.441L145.018 72.6702V96.253H136.358ZM173.598 64.0424V55.9898H208.239V64.0424H195.249V96.253H186.588V64.0424H173.598ZM209.689 96.253V55.9898H240V64.0424H218.349V72.0951H235.67V79.5725H218.349V88.2003H240V96.253H209.689ZM243.169 96.253V55.9898H254.428L270.305 84.4616H270.882L270.305 79.5725V55.9898H278.966V96.253H267.707L251.83 67.7811H251.252L251.83 72.6702V96.253H243.169ZM283.584 96.253V55.9898H298.307C304.696 55.9898 309.95 57.9263 314.069 61.7992C318.187 65.6721 320.247 70.4462 320.247 76.1214C320.247 81.7966 318.187 86.5706 314.069 90.4436C309.95 94.3165 304.696 96.253 298.307 96.253H283.584ZM292.245 88.2003H298.307C302.31 88.2003 305.466 87.1075 307.776 84.9218C310.124 82.6977 311.298 79.7642 311.298 76.1214C311.298 72.4785 310.124 69.5642 307.776 67.3785C305.466 65.1545 302.31 64.0424 298.307 64.0424H292.245V88.2003Z" fill="url(#paint1_linear)"/>
<path d="M323 41H17V99.797H323V41Z" fill="url(#paint2_linear)"/>
<path d="M20.4747 89.6915H29.4238L35.4861 121.039H36.0634L42.1257 89.6915H53.6729L59.7351 121.039H60.3125L66.3748 89.6915H75.3238L66.9521 129.955H54.2502L48.188 100.045H47.6106L41.5483 129.955H28.8465L20.4747 89.6915ZM79.6675 129.955V89.6915H109.979V97.7441H88.3282V105.797H105.649V113.274H88.3282V121.902H109.979V129.955H79.6675ZM115.457 129.955V89.6915H145.768V97.7441H124.117V105.797H141.438V113.274H124.117V121.902H145.768V129.955H115.457ZM151.246 129.955V89.6915H159.907V105.509H165.68L176.65 89.6915H186.465L173.186 108.96L187.331 129.955H177.227L165.969 113.562H159.907V129.955H151.246ZM188.461 129.955V121.902L202.029 112.987C205.263 110.839 207.514 109.018 208.784 107.522C210.055 105.989 210.69 104.263 210.69 102.346C210.69 100.582 210.132 99.1821 209.015 98.1468C207.899 97.1114 206.34 96.5938 204.339 96.5938C201.683 96.5938 199.701 97.5524 198.392 99.4697C197.815 100.352 197.41 101.31 197.18 102.346H188.173C188.558 99.8148 189.404 97.5141 190.713 95.4434C193.638 90.8419 198.18 88.5411 204.339 88.5411C208.996 88.5411 212.749 89.8449 215.597 92.4524C218.484 95.0216 219.927 98.2235 219.927 102.058C219.927 104.435 219.485 106.525 218.599 108.328C217.753 110.092 216.598 111.645 215.135 112.987C213.711 114.29 211.613 115.882 208.842 117.761L204.339 120.752L201.452 121.902V122.19L205.205 121.902H219.927V129.955H188.461ZM229.633 125.181C225.861 121.193 223.975 116.074 223.975 109.823C223.975 103.573 225.861 98.4727 229.633 94.5231C233.406 90.5351 238.063 88.5411 243.606 88.5411C249.148 88.5411 253.806 90.5351 257.578 94.5231C261.35 98.4727 263.236 103.573 263.236 109.823C263.236 116.074 261.35 121.193 257.578 125.181C253.806 129.13 249.148 131.105 243.606 131.105C238.063 131.105 233.406 129.13 229.633 125.181ZM236.042 99.9874C234.156 102.211 233.213 105.49 233.213 109.823C233.213 114.156 234.156 117.454 236.042 119.716C237.967 121.94 240.488 123.052 243.606 123.052C246.723 123.052 249.225 121.94 251.111 119.716C253.036 117.454 253.998 114.156 253.998 109.823C253.998 105.49 253.036 102.211 251.111 99.9874C249.225 97.725 246.723 96.5938 243.606 96.5938C240.488 96.5938 237.967 97.725 236.042 99.9874ZM266.975 129.955V121.902L280.543 112.987C283.776 110.839 286.028 109.018 287.298 107.522C288.568 105.989 289.203 104.263 289.203 102.346C289.203 100.582 288.645 99.1821 287.529 98.1468C286.413 97.1114 284.854 96.5938 282.852 96.5938C280.197 96.5938 278.214 97.5524 276.906 99.4697C276.328 100.352 275.924 101.31 275.693 102.346H266.686C267.071 99.8148 267.918 97.5141 269.227 95.4434C272.152 90.8419 276.694 88.5411 282.852 88.5411C287.51 88.5411 291.263 89.8449 294.111 92.4524C296.998 95.0216 298.441 98.2235 298.441 102.058C298.441 104.435 297.998 106.525 297.113 108.328C296.266 110.092 295.112 111.645 293.649 112.987C292.225 114.29 290.127 115.882 287.356 117.761L282.852 120.752L279.966 121.902V122.19L283.718 121.902H298.441V129.955H266.975ZM301.912 104.934V95.4434L309.707 89.6915H317.501V129.955H308.841V99.7573L301.912 104.934Z" fill="white"/>
<defs>
<linearGradient id="paint0_linear" x1="166.124" y1="86.9842" x2="202.785" y2="236.814" gradientUnits="userSpaceOnUse">
<stop offset="0.0859622" stop-color="#1B0537"/>
<stop offset="1" stop-color="#080609"/>
</linearGradient>
<linearGradient id="paint1_linear" x1="169.939" y1="55.8835" x2="169.939" y2="99.4772" gradientUnits="userSpaceOnUse">
<stop stop-color="#8C31FF"/>
<stop offset="1" stop-color="#F458C8"/>
</linearGradient>
<linearGradient id="paint2_linear" x1="170.283" y1="70.6415" x2="170.283" y2="95.9096" gradientUnits="userSpaceOnUse">
<stop stop-opacity="0"/>
<stop offset="1"/>
</linearGradient>
</defs>
</svg>
