<svg width="122" height="139" viewBox="0 0 122 139" fill="none" xmlns="http://www.w3.org/2000/svg">
<g clip-path="url(#clip0)">
<path d="M4.09799 120.17C2.44114 120.17 1.09799 118.827 1.09799 117.17C1.09799 115.513 2.44114 114.17 4.09799 114.17C5.75485 114.17 7.09799 115.513 7.09799 117.17C7.09799 118.827 5.75485 120.17 4.09799 120.17Z" fill="white" fill-opacity="0.1"/>
<path d="M4.09799 63.2184C2.44114 63.2184 1.09799 61.8752 1.09799 60.2184C1.09799 58.5615 2.44114 57.2184 4.09799 57.2184C5.75485 57.2184 7.09799 58.5615 7.09799 60.2184C7.09799 61.8752 5.75485 63.2184 4.09799 63.2184Z" fill="white" fill-opacity="0.1"/>
<path d="M4.09799 43.5802C2.44114 43.5802 1.09799 42.237 1.09799 40.5802C1.09799 38.9233 2.44114 37.5802 4.09799 37.5802C5.75485 37.5802 7.09799 38.9233 7.09799 40.5802C7.09799 42.237 5.75485 43.5802 4.09799 43.5802Z" fill="white" fill-opacity="0.1"/>
<path d="M4.09799 23.942C2.44114 23.942 1.09799 22.5989 1.09799 20.942C1.09799 19.2851 2.44114 17.942 4.09799 17.942C5.75485 17.942 7.09799 19.2851 7.09799 20.942C7.09799 22.5989 5.75485 23.942 4.09799 23.942Z" fill="white" fill-opacity="0.1"/>
<path d="M4.09799 6.2677C2.44114 6.2677 1.09799 4.92455 1.09799 3.2677C1.09799 1.61085 2.44114 0.2677 4.09799 0.2677C5.75485 0.2677 7.09799 1.61085 7.09799 3.2677C7.09799 4.92455 5.75485 6.2677 4.09799 6.2677Z" fill="white" fill-opacity="0.1"/>
<path d="M4.09799 100.531C2.44114 100.531 1.09799 99.1883 1.09799 97.5314C1.09799 95.8745 2.44114 94.5314 4.09799 94.5314C5.75485 94.5314 7.09799 95.8745 7.09799 97.5314C7.09799 99.1883 5.75485 100.531 4.09799 100.531Z" fill="white" fill-opacity="0.1"/>
<path d="M4.09799 82.8571C2.44114 82.8571 1.09799 81.5139 1.09799 79.8571C1.09799 78.2002 2.44114 76.8571 4.09799 76.8571C5.75485 76.8571 7.09799 78.2002 7.09799 79.8571C7.09799 81.5139 5.75485 82.8571 4.09799 82.8571Z" fill="white" fill-opacity="0.1"/>
<path d="M4.09799 137.844C2.44114 137.844 1.09799 136.501 1.09799 134.844C1.09799 133.187 2.44114 131.844 4.09799 131.844C5.75485 131.844 7.09799 133.187 7.09799 134.844C7.09799 136.501 5.75485 137.844 4.09799 137.844Z" fill="white" fill-opacity="0.1"/>
<path d="M23.7362 120.17C22.0794 120.17 20.7362 118.827 20.7362 117.17C20.7362 115.513 22.0794 114.17 23.7362 114.17C25.3931 114.17 26.7362 115.513 26.7362 117.17C26.7362 118.827 25.3931 120.17 23.7362 120.17Z" fill="white" fill-opacity="0.1"/>
<path d="M23.7362 63.2184C22.0794 63.2184 20.7362 61.8752 20.7362 60.2184C20.7362 58.5615 22.0794 57.2184 23.7362 57.2184C25.3931 57.2184 26.7362 58.5615 26.7362 60.2184C26.7362 61.8752 25.3931 63.2184 23.7362 63.2184Z" fill="white" fill-opacity="0.1"/>
<path d="M23.7362 43.5802C22.0794 43.5802 20.7362 42.237 20.7362 40.5802C20.7362 38.9233 22.0794 37.5802 23.7362 37.5802C25.3931 37.5802 26.7362 38.9233 26.7362 40.5802C26.7362 42.237 25.3931 43.5802 23.7362 43.5802Z" fill="white" fill-opacity="0.1"/>
<path d="M23.7362 23.942C22.0794 23.942 20.7362 22.5989 20.7362 20.942C20.7362 19.2851 22.0794 17.942 23.7362 17.942C25.3931 17.942 26.7362 19.2851 26.7362 20.942C26.7362 22.5989 25.3931 23.942 23.7362 23.942Z" fill="white" fill-opacity="0.1"/>
<path d="M23.7362 6.2677C22.0794 6.2677 20.7362 4.92455 20.7362 3.2677C20.7362 1.61085 22.0794 0.2677 23.7362 0.2677C25.3931 0.2677 26.7362 1.61085 26.7362 3.2677C26.7362 4.92455 25.3931 6.2677 23.7362 6.2677Z" fill="white" fill-opacity="0.1"/>
<path d="M23.7362 100.531C22.0794 100.531 20.7362 99.1883 20.7362 97.5314C20.7362 95.8745 22.0794 94.5314 23.7362 94.5314C25.3931 94.5314 26.7362 95.8745 26.7362 97.5314C26.7362 99.1883 25.3931 100.531 23.7362 100.531Z" fill="white" fill-opacity="0.1"/>
<path d="M23.7362 82.8571C22.0794 82.8571 20.7362 81.5139 20.7362 79.8571C20.7362 78.2002 22.0794 76.8571 23.7362 76.8571C25.3931 76.8571 26.7362 78.2002 26.7362 79.8571C26.7362 81.5139 25.3931 82.8571 23.7362 82.8571Z" fill="white" fill-opacity="0.1"/>
<path d="M23.7362 137.844C22.0794 137.844 20.7362 136.501 20.7362 134.844C20.7362 133.187 22.0794 131.844 23.7362 131.844C25.3931 131.844 26.7362 133.187 26.7362 134.844C26.7362 136.501 25.3931 137.844 23.7362 137.844Z" fill="white" fill-opacity="0.1"/>
<path d="M43.3745 120.17C41.7176 120.17 40.3745 118.827 40.3745 117.17C40.3745 115.513 41.7176 114.17 43.3745 114.17C45.0314 114.17 46.3745 115.513 46.3745 117.17C46.3745 118.827 45.0314 120.17 43.3745 120.17Z" fill="white" fill-opacity="0.1"/>
<path d="M43.3745 63.2184C41.7176 63.2184 40.3745 61.8753 40.3745 60.2184C40.3745 58.5615 41.7176 57.2184 43.3745 57.2184C45.0314 57.2184 46.3745 58.5615 46.3745 60.2184C46.3745 61.8753 45.0314 63.2184 43.3745 63.2184Z" fill="white" fill-opacity="0.1"/>
<path d="M43.3745 43.5802C41.7176 43.5802 40.3745 42.2371 40.3745 40.5802C40.3745 38.9233 41.7176 37.5802 43.3745 37.5802C45.0314 37.5802 46.3745 38.9233 46.3745 40.5802C46.3745 42.2371 45.0314 43.5802 43.3745 43.5802Z" fill="white" fill-opacity="0.1"/>
<path d="M43.3745 23.942C41.7176 23.942 40.3745 22.5989 40.3745 20.942C40.3745 19.2851 41.7176 17.942 43.3745 17.942C45.0314 17.942 46.3745 19.2851 46.3745 20.942C46.3745 22.5989 45.0314 23.942 43.3745 23.942Z" fill="white" fill-opacity="0.1"/>
<path d="M43.3745 6.2677C41.7176 6.2677 40.3745 4.92455 40.3745 3.2677C40.3745 1.61085 41.7176 0.2677 43.3745 0.2677C45.0314 0.2677 46.3745 1.61085 46.3745 3.2677C46.3745 4.92455 45.0314 6.2677 43.3745 6.2677Z" fill="white" fill-opacity="0.1"/>
<path d="M43.3745 100.531C41.7176 100.531 40.3745 99.1883 40.3745 97.5314C40.3745 95.8745 41.7176 94.5314 43.3745 94.5314C45.0314 94.5314 46.3745 95.8745 46.3745 97.5314C46.3745 99.1883 45.0314 100.531 43.3745 100.531Z" fill="white" fill-opacity="0.1"/>
<path d="M43.3745 82.8571C41.7176 82.8571 40.3745 81.514 40.3745 79.8571C40.3745 78.2002 41.7176 76.8571 43.3745 76.8571C45.0314 76.8571 46.3745 78.2002 46.3745 79.8571C46.3745 81.514 45.0314 82.8571 43.3745 82.8571Z" fill="white" fill-opacity="0.1"/>
<path d="M61.049 120.17C59.3921 120.17 58.049 118.827 58.049 117.17C58.049 115.513 59.3921 114.17 61.049 114.17C62.7059 114.17 64.049 115.513 64.049 117.17C64.049 118.827 62.7059 120.17 61.049 120.17Z" fill="white" fill-opacity="0.1"/>
<path d="M61.049 63.2184C59.3921 63.2184 58.049 61.8753 58.049 60.2184C58.049 58.5615 59.3921 57.2184 61.049 57.2184C62.7059 57.2184 64.049 58.5615 64.049 60.2184C64.049 61.8753 62.7059 63.2184 61.049 63.2184Z" fill="white" fill-opacity="0.1"/>
<path d="M80.6871 120.17C79.0302 120.17 77.6871 118.827 77.6871 117.17C77.6871 115.513 79.0302 114.17 80.6871 114.17C82.3439 114.17 83.6871 115.513 83.6871 117.17C83.6871 118.827 82.3439 120.17 80.6871 120.17Z" fill="white" fill-opacity="0.1"/>
<path d="M80.6871 63.2184C79.0302 63.2184 77.6871 61.8753 77.6871 60.2184C77.6871 58.5615 79.0302 57.2184 80.6871 57.2184C82.344 57.2184 83.6871 58.5615 83.6871 60.2184C83.6871 61.8753 82.344 63.2184 80.6871 63.2184Z" fill="white" fill-opacity="0.1"/>
<path d="M80.6871 43.5802C79.0302 43.5802 77.6871 42.2371 77.6871 40.5802C77.6871 38.9233 79.0302 37.5802 80.6871 37.5802C82.344 37.5802 83.6871 38.9233 83.6871 40.5802C83.6871 42.2371 82.344 43.5802 80.6871 43.5802Z" fill="white" fill-opacity="0.1"/>
<path d="M80.6871 23.942C79.0302 23.942 77.6871 22.5989 77.6871 20.942C77.6871 19.2851 79.0302 17.942 80.6871 17.942C82.344 17.942 83.6871 19.2851 83.6871 20.942C83.6871 22.5989 82.344 23.942 80.6871 23.942Z" fill="white" fill-opacity="0.1"/>
<path d="M80.6871 6.2677C79.0302 6.2677 77.6871 4.92455 77.6871 3.2677C77.6871 1.61085 79.0302 0.2677 80.6871 0.2677C82.344 0.2677 83.6871 1.61085 83.6871 3.2677C83.6871 4.92455 82.344 6.2677 80.6871 6.2677Z" fill="white" fill-opacity="0.1"/>
<path d="M98.3616 43.5802C96.7047 43.5802 95.3616 42.2371 95.3616 40.5802C95.3616 38.9233 96.7047 37.5802 98.3616 37.5802C100.018 37.5802 101.362 38.9233 101.362 40.5802C101.362 42.2371 100.018 43.5802 98.3616 43.5802Z" fill="white" fill-opacity="0.1"/>
<path d="M118 43.5802C116.343 43.5802 115 42.2371 115 40.5802C115 38.9233 116.343 37.5802 118 37.5802C119.657 37.5802 121 38.9233 121 40.5802C121 42.2371 119.657 43.5802 118 43.5802Z" fill="white" fill-opacity="0.1"/>
</g>
<defs>
<clipPath id="clip0">
<rect width="138" height="121" fill="white" transform="translate(121.5 0.2677) rotate(90)"/>
</clipPath>
</defs>
</svg>
